<svg width="168" height="38" viewBox="0 0 168 38" fill="none" xmlns="http://www.w3.org/2000/svg">
<path fill-rule="evenodd" clip-rule="evenodd" d="M41.5983 3.23836C54.0656 2.63272 66.5328 2.02708 79 1.42136C76.1041 4.3632 73.3185 8.78132 70.3122 10.2468C69.7231 11.1769 36.9599 9.96557 33.8676 11.8691C30.8981 12.9398 18.0995 30.7043 16.3448 30.753C14.2956 31.9806 6.70599 31.164 1.91424 31.4668C1.10396 31.5064 0.526413 31.8688 0 32.4726C1.36516 30.5664 2.61306 27.5111 4.5856 26.9189C5.59181 26.5646 6.74281 26.7349 7.58335 26.3726C8.83858 25.7836 9.51566 24.5659 10.8965 23.8743C13.1973 22.9117 17.0994 24.3988 19.4003 22.9333C26.7996 16.3683 33.7572 3.44372 41.5983 3.23821V3.23836Z" fill="#E31E24"/>
<path fill-rule="evenodd" clip-rule="evenodd" d="M68 13.842C55.0428 14.3207 37.7028 13.2119 35.9554 14.5595C33.9912 15.1249 30.6518 19.9956 28 22.7137C38.8674 22.2353 58.3408 22.3848 60.2677 21.8657C62.1388 21.3928 65.4226 16.5165 68 13.8419V13.842Z" fill="#E31E24"/>
<path fill-rule="evenodd" clip-rule="evenodd" d="M58 25.3787C47.5843 25.8807 29.3314 24.3847 26.4599 26.8279C20.0284 30.9 21.1575 36.3343 11 37.7957C14.6154 37.6618 20.3323 37.9798 21.6788 37.3941C24.7285 35.7876 25.6582 32.2733 28.6711 30.9681C30.7186 30.0867 45.3462 31.247 52.7983 30.6334C54.1633 30.4883 56.2661 27.1302 58 25.3787V25.3787Z" fill="#E31E24"/>
<path d="M87.0001 26.1534H89.5811V14.0347H93.6712V12.097H89.5811V2.93757H93.8697V1H87V26.1534H87.0001ZM101.445 1H99.0231V26.1534H101.445V1ZM106.122 7.16505L109.219 26.1886L108.068 31.7899H110.49L114.898 7.16505H112.436L110.371 19.9884H110.292L108.544 7.16505H106.122V7.16505ZM121.997 7.16505H119.575V26.1534H121.997V7.16505ZM119.575 3.64214H121.997V1H119.575V3.64214ZM127.388 26.1534H129.811V10.6527C129.811 9.87773 130.367 8.89135 131.518 8.89135C132.63 8.89135 133.067 9.63113 133.067 10.6527V26.1534H135.489V9.8072C135.489 8.29229 134.576 6.95366 132.67 6.95366C131.399 6.95366 130.367 7.65824 129.89 8.43325H129.811V7.16505H127.388V26.1534V26.1534ZM146.082 7.16505V23.5113C146.082 25.0614 146.996 26.3648 148.981 26.3648C150.252 26.3648 151.284 25.6602 151.84 24.8852H151.92V26.1534H154.183V7.16505H151.761V22.6657C151.761 23.4407 151.205 24.4271 150.053 24.4271C148.941 24.4271 148.505 23.6873 148.505 22.6657V7.16505H146.082H146.082ZM159.336 31.7899H161.759V24.9908H161.838C162.354 25.8716 163.387 26.3648 164.657 26.3648C166.325 26.3648 167.437 25.1318 167.437 23.4408V10.6527C167.437 7.7992 165.849 6.95378 164.3 6.95378C162.91 6.95378 162.076 7.48218 161.679 8.36293H161.6V7.16516H159.336V31.7901V31.7899ZM163.585 8.67985C164.578 8.67985 165.015 9.41964 165.015 10.7231V22.243C165.015 23.6521 164.538 24.4271 163.545 24.4271C162.473 24.4271 161.759 23.5464 161.759 22.3486V10.7935C161.759 9.27858 162.592 8.67975 163.585 8.67975V8.67985Z" fill="#1C1B17"/>
<path fill-rule="evenodd" clip-rule="evenodd" d="M141.865 1.10168H139.493V7.09378H141.865V1.10168Z" fill="#1C1B17" stroke="#2B2A29" stroke-width="0.755877" stroke-miterlimit="22.9256"/>
<path d="M87.6052 37.6783V34.0185H88.3792L89.6334 35.749L90.8888 34.0185H91.6597V37.6783H90.9348V35.0546L89.6334 36.7799H89.6108L88.3183 35.0651V37.6784H87.6052V37.6783ZM93.3322 37.6783L95.1472 33.9923H95.821L97.6342 37.6783H96.8681L96.4507 36.7947H94.5L94.0747 37.6783H93.3322V37.6783ZM94.7652 36.2249H96.1865L95.4725 34.7601L94.7652 36.2249ZM99.3077 37.6783V34.0185H100.033V35.8588L101.995 34.0185H102.884L101.169 35.593L102.962 37.6783H102.084L100.674 36.0322L100.033 36.6169V37.6782H99.3078L99.3077 37.6783ZM104.547 37.6783V34.0185H107.605V34.5883H105.271V35.5504H107.34V36.1202H105.271V37.1084H107.634V37.6782H104.547V37.6783ZM109.187 37.145L109.624 36.6857C109.83 36.8434 110.036 36.9628 110.243 37.0421C110.45 37.1214 110.677 37.1606 110.925 37.1606C111.15 37.1606 111.327 37.1187 111.458 37.0342C111.59 36.9497 111.655 36.8355 111.655 36.6908C111.655 36.5984 111.632 36.5227 111.584 36.4616C111.536 36.4016 111.444 36.3432 111.309 36.2882C111.173 36.2324 110.98 36.1784 110.726 36.1261C110.489 36.0765 110.292 36.0251 110.137 35.971C109.981 35.9179 109.84 35.849 109.716 35.7654C109.59 35.6817 109.498 35.5807 109.439 35.4604C109.381 35.3402 109.351 35.1955 109.351 35.0274C109.351 34.7145 109.483 34.4593 109.747 34.2623C110.01 34.0646 110.348 33.9661 110.761 33.9661C111.33 33.9661 111.829 34.1194 112.256 34.4262L111.869 34.9125C111.487 34.6615 111.113 34.536 110.749 34.536C110.543 34.536 110.379 34.5778 110.258 34.6605C110.137 34.7442 110.076 34.8496 110.076 34.9786C110.076 35.0763 110.104 35.1564 110.158 35.2191C110.213 35.2819 110.309 35.3403 110.447 35.3925C110.585 35.4457 110.787 35.4997 111.054 35.5563C111.513 35.6547 111.848 35.7855 112.061 35.9485C112.274 36.1114 112.38 36.3406 112.38 36.6368C112.38 36.974 112.245 37.2407 111.974 37.4368C111.702 37.6328 111.347 37.7305 110.907 37.7305C110.252 37.7305 109.678 37.5352 109.187 37.1449V37.145ZM118.109 34.0185H118.963L120.114 35.6392L121.279 34.0185H122.111L120.471 36.2213V37.6783H119.746V36.2362L118.109 34.0185V34.0185ZM123.182 35.8484C123.182 35.5931 123.237 35.35 123.343 35.1191C123.451 34.8881 123.599 34.6876 123.786 34.5161C123.975 34.3452 124.204 34.2093 124.475 34.1074C124.745 34.0063 125.035 33.9557 125.343 33.9557C125.655 33.9557 125.944 34.0054 126.212 34.1047C126.482 34.2049 126.709 34.34 126.896 34.5099C127.084 34.6799 127.23 34.8811 127.336 35.1129C127.443 35.3446 127.496 35.5895 127.496 35.8483C127.496 36.1036 127.442 36.3467 127.335 36.5776C127.228 36.8094 127.08 37.0099 126.892 37.1806C126.704 37.3523 126.474 37.4883 126.203 37.5893C125.932 37.6904 125.641 37.7409 125.332 37.7409C124.92 37.7409 124.549 37.6556 124.219 37.4847C123.889 37.3139 123.633 37.0848 123.453 36.7972C123.273 36.5097 123.182 36.1933 123.182 35.8483V35.8484ZM123.943 35.8484C123.943 36.0864 124.002 36.3041 124.119 36.5028C124.237 36.7024 124.404 36.861 124.62 36.9786C124.836 37.0962 125.077 37.1554 125.343 37.1554C125.61 37.1554 125.85 37.0971 126.064 36.9803C126.278 36.8626 126.443 36.705 126.56 36.5072C126.677 36.3085 126.736 36.0889 126.736 35.8484C126.736 35.6106 126.676 35.3927 126.557 35.1931C126.439 34.9944 126.272 34.8359 126.055 34.7182C125.84 34.6005 125.599 34.5414 125.333 34.5414C125.065 34.5414 124.826 34.5997 124.612 34.7165C124.398 34.8342 124.233 34.9918 124.117 35.1896C124.001 35.3883 123.943 35.607 123.943 35.8483L123.943 35.8484ZM129.276 36.1255V34.0185H130.001V36.1046C130.001 36.4401 130.092 36.6989 130.276 36.8793C130.458 37.0597 130.715 37.1503 131.043 37.1503C131.369 37.1503 131.623 37.0631 131.806 36.8898C131.99 36.7156 132.081 36.4628 132.081 36.13V34.0186H132.806V36.0924C132.806 36.6266 132.648 37.0344 132.333 37.315C132.017 37.5956 131.583 37.7359 131.031 37.7359C130.484 37.7359 130.055 37.5983 129.743 37.3229C129.432 37.0466 129.276 36.6484 129.276 36.1255H129.276ZM139.1 37.6783V34.0185H139.825V35.5399H141.793V34.0185H142.518V37.6783H141.793V36.136H139.825V37.6783H139.1ZM144.587 37.6783V34.0185H145.312V37.6783H144.587ZM147.198 35.8484C147.198 35.5949 147.252 35.3525 147.359 35.1216C147.465 34.8907 147.61 34.6894 147.794 34.5178C147.978 34.3461 148.203 34.2093 148.47 34.1074C148.737 34.0063 149.021 33.9557 149.325 33.9557C149.67 33.9557 149.963 33.9958 150.208 34.076C150.452 34.1561 150.684 34.2799 150.906 34.4472L150.449 34.9361C150.273 34.8028 150.098 34.7033 149.924 34.6389C149.75 34.5735 149.541 34.5412 149.297 34.5412C149.049 34.5412 148.822 34.6005 148.616 34.7181C148.41 34.8357 148.249 34.9952 148.133 35.1947C148.017 35.3951 147.959 35.613 147.959 35.8482C147.959 36.0983 148.017 36.3223 148.132 36.52C148.247 36.717 148.411 36.872 148.625 36.9854C148.839 37.0986 149.083 37.1552 149.359 37.1552C149.748 37.1552 150.081 37.0638 150.357 36.8799V36.1933H149.302V35.6338H151.053V37.1709C150.554 37.5509 149.981 37.7408 149.337 37.7408C148.914 37.7408 148.54 37.658 148.213 37.4924C147.886 37.326 147.635 37.1003 147.461 36.8137C147.286 36.527 147.198 36.2054 147.198 35.8482V35.8484ZM152.968 37.6783V34.0185H153.693V35.5399H155.661V34.0185H156.386V37.6783H155.661V36.136H153.693V37.6783H152.968ZM158.414 37.6783V34.0185H161.472V34.5883H159.139V35.5504H161.207V36.1202H159.139V37.1084H161.501V37.6782H158.414V37.6783ZM163.331 37.6783V34.0185H165.171C165.65 34.0185 166.026 34.1239 166.298 34.3348C166.571 34.5456 166.707 34.8288 166.707 35.1835C166.707 35.4736 166.619 35.7116 166.441 35.898C166.263 36.0845 166.023 36.2161 165.717 36.2927L166.831 37.6782H165.977L164.952 36.4025H164.055V37.6782H163.33L163.331 37.6783ZM164.055 35.8327H165.116C165.375 35.8327 165.582 35.777 165.735 35.6645C165.888 35.5521 165.965 35.4004 165.965 35.2097C165.965 35.0153 165.89 34.8654 165.741 34.7608C165.591 34.6563 165.381 34.604 165.11 34.604H164.055V35.8326V35.8327Z" fill="#E31E24"/>
</svg>
