<svg width="31" height="31" viewBox="0 0 31 31" fill="none" xmlns="http://www.w3.org/2000/svg">
<path d="M15.5 14.3844L27.4812 6.6875C26.9995 6.3262 26.4146 6.12903 25.8125 6.125H5.18749C4.58537 6.12903 4.00043 6.3262 3.51874 6.6875L15.5 14.3844Z" fill="#293042"/>
<path d="M16.0063 16.2875L15.8469 16.3625H15.7719C15.6856 16.4011 15.5939 16.4263 15.5 16.4375V16.4375C15.4222 16.4473 15.3434 16.4473 15.2656 16.4375H15.1906L15.0312 16.3625L2.46875 8.24374C2.40873 8.47019 2.37724 8.70324 2.375 8.93749V22.0625C2.375 22.8084 2.67132 23.5238 3.19876 24.0512C3.72621 24.5787 4.44158 24.875 5.1875 24.875H25.8125C26.5584 24.875 27.2738 24.5787 27.8012 24.0512C28.3287 23.5238 28.625 22.8084 28.625 22.0625V8.93749C28.6228 8.70324 28.5913 8.47019 28.5312 8.24374L16.0063 16.2875Z" fill="#293042"/>
</svg>
