<svg width="31" height="31" viewBox="0 0 31 31" fill="none" xmlns="http://www.w3.org/2000/svg">
<path d="M12.89 8.06C12.5319 3.94062 8.23439 1.91937 8.05251 1.83687C7.88249 1.75695 7.69196 1.73141 7.50689 1.76375C2.54564 2.58687 1.79939 5.47437 1.76939 5.59437C1.72857 5.7616 1.73507 5.93688 1.78814 6.10062C7.70564 24.4606 20.0038 27.8637 24.0463 28.9831C24.3575 29.0694 24.6144 29.1387 24.8094 29.2025C25.0319 29.2752 25.2737 29.2611 25.4863 29.1631C25.61 29.1069 28.5313 27.7306 29.2456 23.2419C29.2773 23.0459 29.2458 22.845 29.1556 22.6681C29.0919 22.5444 27.5638 19.6362 23.3263 18.6087C23.1825 18.572 23.032 18.5707 22.8876 18.605C22.7432 18.6393 22.6094 18.7081 22.4975 18.8056C21.1606 19.9475 19.3138 21.1644 18.5169 21.29C13.175 18.6781 10.1919 13.6662 10.0794 12.7156C10.0138 12.1812 11.2381 10.3044 12.6463 8.77812C12.7348 8.68207 12.8022 8.56855 12.8442 8.44486C12.8861 8.32118 12.9018 8.19008 12.89 8.06V8.06Z" fill="#293042"/>
</svg>
