<svg width="31" height="31" viewBox="0 0 31 31" fill="none" xmlns="http://www.w3.org/2000/svg">
<path d="M20.6425 12.1138C21.3325 11.4238 22.0175 9.81376 19.1425 11.7688C16.4568 13.6171 13.753 15.4389 11.0313 17.2338C10.6168 17.4212 10.1688 17.5229 9.71402 17.5327C9.25927 17.5426 8.80722 17.4605 8.38502 17.2913C6.66002 16.7738 4.64627 16.0838 4.64627 16.0838C4.64627 16.0838 3.27127 15.22 5.62502 14.3C5.62502 14.3 15.5763 10.2163 19.0275 8.77751C20.35 8.20251 24.8363 6.36251 24.8363 6.36251C24.8363 6.36251 26.9075 5.55626 26.735 7.51251C26.6775 8.31751 26.2175 11.1375 25.7575 14.185C25.0663 18.4988 24.3188 23.2163 24.3188 23.2163C24.3188 23.2163 24.2038 24.5388 23.2263 24.7688C22.1799 24.7511 21.1688 24.3871 20.3513 23.7338C20.1213 23.5613 16.0375 20.9725 14.5413 19.7075C14.3891 19.6044 14.2654 19.4645 14.1818 19.3007C14.0982 19.137 14.0574 18.9548 14.0631 18.7711C14.0689 18.5873 14.121 18.408 14.2146 18.2498C14.3083 18.0916 14.4404 17.9597 14.5988 17.8663C16.651 15.9887 18.6659 14.0708 20.6425 12.1138V12.1138Z" fill="#293042"/>
</svg>
